#!OML:ASF F:\VICON\USERDATA\INSTALL\rory3\rory3.ASF
:FULLY-SPECIFIED
:DEGREES
91
root 0.6938032985756749 17.623497743718268 16.78330357344406 2.9684681526360785 -0.7039533421003363 -1.749386665244395
lfemur -26.171718014466073 1.0450720906283106 -22.3539846022106
ltibia 47.710009856475814
lfoot 7.905230026794282 -7.602540836813029
ltoes -15.81774370830102
rfemur -0.43096738547653324 4.207040467163385 29.123977225576347
rtibia 72.40236440151443
rfoot -2.1462850722615006 -7.252083021300496
rtoes 1.3015582347793613
lowerback 14.053447549662064 1.8271013202258 1.4345339293861359
upperback -0.7319357395887257 2.668043459037471 -0.3393833981089114
thorax -8.3344245444556 1.3244103497314366 -1.1269256111137498
lowerneck -18.15232126234209 -5.157501711321192 -2.3945786703708474
upperneck 6.161936629992743 -7.271041726337454 6.627206054357169
head 4.885669190470322 -3.064895187374995 1.815534216080988
lclavicle -1.3367475555275893e-15 -2.758979314869589e-15
lhumerus -41.74840880063681 -10.586276703669078 90.7521802044421
lradius 104.02458020551228
lwrist 30.837779185666214
lhand -23.527110637006924 3.998271669450065
lfingers 7.12502
lthumb 2.501547854642861 33.36543737254243
rclavicle -1.336747555422509e-15 -2.7589793147915942e-15
rhumerus -51.16560917363207 7.87652066513204 -95.72482286754793
rradius 113.6805606503649
rwrist -22.089439364135494
rhand -19.30117730144459 38.21655324385843
rfingers 7.12502
rthumb 6.300779773257151 7.814296841841596
92
root 0.6722877221097915 17.621822682364915 17.131902926404496 3.0487317830514096 -0.9010902436839754 -1.7418707734881356
lfemur -25.11756497786884 1.2351633894759813 -22.515559079324426
ltibia 45.50402682799952
lfoot 8.736748998436259 -8.07788575914965
ltoes -14.396358071927958
rfemur -1.4978707721424414 4.25497900372241 28.896549451285566
rtibia 75.26014262770988
rfoot -2.6256942661514255 -7.954413241459746
rtoes 1.8686690347990509
lowerback 14.151036475443453 1.8232402131511045 1.277154271023444
upperback -0.6964332635386459 2.6302055392611012 -0.280892549244377
thorax -8.564302562162807 1.298093094638991 -1.0284316567421892
lowerneck -18.31274650426193 -5.122189330517776 -2.373672745321927
upperneck 6.145948593458924 -7.233926035168477 6.670230697528391
head 4.937754399011041 -3.0318546247229565 1.8252775111742432
lclavicle -1.33674755552934e-15 -2.7589793148706933e-15
lhumerus -42.02585678877713 -10.318558940983044 90.83973295070022
lradius 104.14511406356957
lwrist 30.632933207341765
lhand -23.617259813402665 4.067484008985184
lfingers 7.12502
lthumb 2.421784200313005 33.427946165377705
rclavicle -1.3367475554234995e-15 -2.7589793147920845e-15
rhumerus -50.61764892914163 8.246911044921482 -95.8241378941066
rradius 113.34025204000177
rwrist -21.993074486882787
rhand -19.19694230969263 37.947333784029595
rfingers 7.12502
rthumb 6.311492822461036 7.462831261357882
93
root 0.6567806213604237 17.608460504767518 17.579992172580692 3.1007318192413518 -1.1986795124849443 -1.7216250079995987
lfemur -23.972606741829534 1.548410305988694 -22.682500449379383
ltibia 43.54856225846835
lfoot 8.804787727966215 -8.822207824050537
ltoes -13.53059595376785
rfemur -2.6420718426142606 4.312092521261151 28.645701831893472
rtibia 78.07047292617352
rfoot -2.8150550028736987 -8.529851377682492
rtoes 2.7831389982217467
lowerback 14.222139073838703 1.832311651699177 1.1118986148108785
upperback -0.6517552341660654 2.609223459624986 -0.2380566963373174
thorax -8.756889916507232 1.2898706499179422 -0.9555796827178498
lowerneck -18.503476059787047 -5.067700420868696 -2.3484549302606483
upperneck 6.1583401457197 -7.17685640287705 6.705316241671759
head 4.999466454460028 -2.9890509602989095 1.835270805617124
lclavicle -1.3367475555308994e-15 -2.7589793148715906e-15
lhumerus -42.30619536583586 -10.139164854902166 90.92349858531834
lradius 104.30281105964674
lwrist 30.510415484538143
lhand -23.718373155848603 4.215497569673971
lfingers 7.12502
lthumb 2.4246493605704673 33.6400880567323
rclavicle -1.3367475554237794e-15 -2.758979314791946e-15
rhumerus -50.118146420738135 8.59228275742781 -95.90391043086537
rradius 113.01385558733129
rwrist -21.84674295965323
rhand -19.16946378435832 37.65368620370982
rfingers 7.12502
rthumb 6.331918045129456 7.166356477598647
94
root 0.648675414755025 17.60579820076233 18.08768356254415 3.1747263164410455 -1.5116259179053437 -1.6949494446676163
lfemur -22.76171153678233 1.8996785389788533 -22.858141741506564
ltibia 41.86736643384534
lfoot 8.602694894116993 -9.155085950964185
ltoes -12.858557990816887
rfemur -3.8838637907457105 4.353221373212544 28.3678731451077
rtibia 80.72905947704186
rfoot -2.804540835346012 -8.916833881071389
rtoes 3.264502481078433
lowerback 14.236243935257594 1.8314669849264216 0.9623690081184583
upperback -0.6066242629400106 2.567668011900434 -0.22249165556821437
thorax -8.907808934075836 1.2737925166353739 -0.8842021068373886
lowerneck -18.708212142846993 -5.015057480991232 -2.3378209783406323
upperneck 6.18870356764958 -7.124602752125751 6.745310118864551
head 5.0672147373882375 -2.94923408556924 1.8473714155478422
lclavicle -1.33674755553169e-15 -2.758979314871903e-15
lhumerus -42.51672438111682 -10.042127392961314 91.01133307256087
lradius 104.4771662103722
lwrist 30.44874833730151
lhand -23.82974285248107 4.313636998350377
lfingers 7.12502
lthumb 2.2942851376145073 33.729971057113126
rclavicle -1.336747555427196e-15 -2.758979314794294e-15
rhumerus -49.634128017007725 8.942414748590327 -95.94849100370176
rradius 112.68518066828992
rwrist -21.606952670863492
rhand -19.205090581978503 37.48720319426066
rfingers 7.12502
rthumb 6.367489793527664 7.051433940323074
